<svg width="230" height="198" viewBox="0 0 230 198" fill="none" xmlns="http://www.w3.org/2000/svg">
<g clip-path="url(#clip0_16_148)">
<path fill-rule="evenodd" clip-rule="evenodd" d="M130.887 76.4842C113.462 59.9766 92.3226 45.6165 68.7821 41.0125C60.2169 39.3365 51.7819 39.6754 43.1432 39.9448C42.5374 39.9627 42.0586 40.4714 42.0758 41.08C42.0958 41.6893 42.6045 42.1682 43.2139 42.1481C51.6856 41.8851 59.9589 41.5329 68.3585 43.1766C91.565 47.7151 112.372 61.938 129.524 78.2284L129.295 78.5124C126.796 81.59 126.396 86.9514 127.513 92.9897C129.112 101.645 133.709 111.717 138.613 117.914C140.818 120.698 143.108 122.706 145.21 123.561C146.849 124.228 148.406 124.237 149.803 123.523C152.777 122 153.682 118.286 152.931 113.496C151.363 103.479 142.872 88.5655 137.566 83.0905C135.909 81.3814 134.212 79.6829 132.477 78.007C132.902 77.4537 133.32 76.9137 133.75 76.407C134.98 74.9669 136.334 73.7823 138.464 73.2922C141.783 72.532 145.339 73.1994 148.799 74.553C154.196 76.6693 159.351 80.4754 163.072 83.5548C183.795 100.706 190.464 122.61 191.69 143.133C192.924 163.86 188.63 183.202 187.484 194.983C187.424 195.589 187.869 196.126 188.475 196.186C189.08 196.246 189.62 195.802 189.678 195.195C190.832 183.338 195.134 163.866 193.888 143.001C192.635 121.932 185.75 99.4629 164.48 81.8557C160.604 78.6477 155.225 74.7034 149.604 72.5003C145.713 70.9767 141.706 70.2877 137.97 71.1436C134.618 71.913 132.801 74.0284 130.887 76.4842ZM131.12 79.7618L131.005 79.9021C128.82 82.5921 128.705 87.3085 129.682 92.5882C131.218 100.905 135.628 110.587 140.344 116.545C141.96 118.588 143.603 120.185 145.18 121.095C146.482 121.843 147.713 122.116 148.796 121.559C149.823 121.037 150.425 120.102 150.73 118.907C151.091 117.504 151.056 115.773 150.754 113.838C149.247 104.213 141.082 89.8858 135.983 84.6254C134.398 82.9928 132.778 81.3689 131.12 79.7618Z" fill="black"/>
<path fill-rule="evenodd" clip-rule="evenodd" d="M39.5574 42.5166C39.7724 42.0845 40.2376 41.5931 40.7441 41.0708C41.9492 39.8252 43.5247 38.5767 44.2434 37.958C44.7049 37.5588 44.7532 36.8627 44.3568 36.4019C43.9577 35.9404 43.2623 35.8893 42.8007 36.2884C41.9213 37.0473 39.8248 38.7151 38.5358 40.2177C37.845 41.0241 37.386 41.8176 37.272 42.4451C37.0759 43.5133 37.7279 44.3881 39.3784 44.7883C41.3312 45.2605 45.1943 45.253 47.8976 47.2303C48.3872 47.5898 49.0803 47.4811 49.4371 46.9908C49.7974 46.4984 49.6907 45.8087 49.1983 45.4484C46.6202 43.5647 43.1238 43.2018 40.8069 42.8213C40.3667 42.7485 39.8579 42.6062 39.5574 42.5166Z" fill="black"/>
</g>
<defs>
<clipPath id="clip0_16_148">
<rect width="187" height="187" fill="white" transform="translate(180.628 229.027) rotate(-165)"/>
</clipPath>
</defs>
</svg>
