<svg width="40" height="40" viewBox="0 0 40 40" fill="none" xmlns="http://www.w3.org/2000/svg">
<path d="M38.5684 8.44876C37.2016 9.05596 35.7332 9.46436 34.192 9.64876C35.766 8.70596 36.9728 7.21356 37.5412 5.43396C36.07 6.30676 34.4392 6.94076 32.702 7.28356C31.3124 5.80236 29.3328 4.87676 27.1416 4.87676C22.2984 4.81196 18.5748 9.54356 19.7208 14.2308C13.3892 13.9136 7.776 10.88 4.0168 6.26916C1.9652 9.61476 3.13 14.3992 6.3752 16.4416C5.1268 16.4016 3.9512 16.0588 2.9244 15.4888C2.8768 19.2108 5.5172 22.3532 9.036 23.0544C7.9548 23.356 6.7092 23.4032 5.5952 23.1856C6.5652 26.212 9.3788 28.416 12.7124 28.4772C9.6984 30.8856 5.4788 32.1412 1.432 31.6324C17.7048 41.6472 35.694 28.5264 34.7652 12.392C36.2544 11.3168 37.5472 9.97556 38.5684 8.44876Z" fill="url(#paint0_linear_16_354)"/>
<defs>
<linearGradient id="paint0_linear_16_354" x1="1.432" y1="19.9998" x2="38.5684" y2="19.9998" gradientUnits="userSpaceOnUse">
<stop stop-color="#B224EF"/>
<stop offset="1" stop-color="#7579FF"/>
</linearGradient>
</defs>
</svg>
